<svg width="24" height="24" viewBox="0 0 24 24" fill="none" xmlns="http://www.w3.org/2000/svg">
<path d="M3.5 14.9655L4.4442 14.6361L4.4442 14.6361L3.5 14.9655ZM20.0179 16.0924L19.0373 16.2885L18.969 15.9471L19.1276 15.6371L20.0179 16.0924ZM20.8523 20.2646L21.8329 20.0684L21.8329 20.0684L20.8523 20.2646ZM20.264 20.8529L20.4601 19.8723L20.4601 19.8723L20.264 20.8529ZM16.0914 20.0184L15.6362 19.128L15.9462 18.9695L16.2875 19.0378L16.0914 20.0184ZM9.03451 20.5L9.36389 19.5558L9.36389 19.5558L9.03451 20.5ZM4 12C4 12.9254 4.1567 13.812 4.4442 14.6361L2.5558 15.2949C2.19544 14.2619 2 13.1527 2 12H4ZM12 4C7.58172 4 4 7.58172 4 12H2C2 6.47715 6.47715 2 12 2V4ZM20 12C20 7.58172 16.4183 4 12 4V2C17.5228 2 22 6.47715 22 12H20ZM19.1276 15.6371C19.6851 14.547 20 13.3117 20 12H22C22 13.6357 21.6065 15.1823 20.9082 16.5478L19.1276 15.6371ZM20.9985 15.8963L21.8329 20.0684L19.8717 20.4607L19.0373 16.2885L20.9985 15.8963ZM21.8329 20.0684C22.0428 21.118 21.1174 22.0434 20.0678 21.8335L20.4601 19.8723C20.1102 19.8024 19.8018 20.1108 19.8717 20.4607L21.8329 20.0684ZM20.0679 21.8335L15.8953 20.999L16.2875 19.0378L20.4601 19.8723L20.0679 21.8335ZM12 20C13.3114 20 14.5463 19.6852 15.6362 19.128L16.5466 20.9088C15.1815 21.6068 13.6352 22 12 22V20ZM9.36389 19.5558C10.188 19.8433 11.0746 20 12 20V22C10.8473 22 9.73814 21.8046 8.70512 21.4442L9.36389 19.5558ZM4.4442 14.6361C5.24552 16.9332 7.06684 18.7545 9.36389 19.5558L8.70512 21.4442C5.83213 20.442 3.55804 18.1679 2.5558 15.2949L4.4442 14.6361Z" fill="#999999"/>
</svg>
