<svg width="24" height="24" viewBox="0 0 24 24" fill="none" xmlns="http://www.w3.org/2000/svg">
<path fill-rule="evenodd" clip-rule="evenodd" d="M12.5684 3.39198L12.0001 2.99954L11.4318 3.39198L1.43183 10.298C0.977383 10.6119 0.863401 11.2347 1.17724 11.6891C1.49109 12.1436 2.11391 12.2575 2.56835 11.9437L12.0001 5.43012L21.4318 11.9437C21.8863 12.2575 22.5091 12.1436 22.8229 11.6891C23.1368 11.2347 23.0228 10.6119 22.5684 10.298L12.5684 3.39198ZM5.00009 12.6261V19C5.00009 19.5523 5.44781 20 6.00009 20H18.0001C18.5524 20 19.0001 19.5523 19.0001 19V12.6261C19.0001 12.3009 18.842 11.996 18.5761 11.8087L12.5761 7.58048C12.2307 7.33705 11.7695 7.33705 11.4241 7.58048L5.42406 11.8087C5.15823 11.996 5.00009 12.3009 5.00009 12.6261ZM11 16.0029C11 15.4506 11.4477 15.0029 12 15.0029C12.5523 15.0029 13 15.4506 13 16.0029V19.9998H11V16.0029ZM12 13.0041C12.5523 13.0041 13 12.5567 13 12.0047C13 11.4528 12.5523 11.0053 12 11.0053C11.4477 11.0053 11 11.4528 11 12.0047C11 12.5567 11.4477 13.0041 12 13.0041Z" fill="#999999"/>
</svg>
