<svg width="20" height="20" viewBox="0 0 20 20" fill="none" xmlns="http://www.w3.org/2000/svg">
<path fill-rule="evenodd" clip-rule="evenodd" d="M4 2H16C17.1046 2 18 2.89543 18 4V16C18 17.1046 17.1046 18 16 18H4C2.89543 18 2 17.1046 2 16V4C2 2.89543 2.89543 2 4 2ZM0 4C0 1.79086 1.79086 0 4 0H16C18.2091 0 20 1.79086 20 4V16C20 18.2091 18.2091 20 16 20H4C1.79086 20 0 18.2091 0 16V4ZM5 9C4.44772 9 4 9.44771 4 10C4 10.5523 4.44772 11 5 11H9.5H15C15.5523 11 16 10.5523 16 10C16 9.44771 15.5523 9 15 9H9.5H5ZM4 15C4 14.4477 4.44772 14 5 14H9.5H15C15.5523 14 16 14.4477 16 15C16 15.5523 15.5523 16 15 16H9.5H5C4.44772 16 4 15.5523 4 15ZM5 4C4.44772 4 4 4.44772 4 5C4 5.55228 4.44772 6 5 6H9.5H15C15.5523 6 16 5.55228 16 5C16 4.44772 15.5523 4 15 4H9.5H5Z" fill="#999999"/>
</svg>
