<svg width="20" height="20" viewBox="0 0 20 20" fill="none" xmlns="http://www.w3.org/2000/svg">
<path fill-rule="evenodd" clip-rule="evenodd" d="M3.53396 4.96776C4.31512 2.03844 6.96813 0 9.9999 0C13.0317 0 15.6845 2.03835 16.4658 4.96776L18.4985 12.5908L18.8633 12.8095C19.5684 13.2326 19.9999 13.9946 19.9999 14.817C19.9999 16.1097 18.9518 17.1579 17.659 17.1579H14.0572C13.4551 18.8154 11.8663 20 9.9998 20C8.13347 20 6.54466 18.8154 5.9425 17.1579H2.3411C1.04818 17.1579 0 16.1098 0 14.817C0 13.9946 0.431561 13.2326 1.1366 12.8095L1.50138 12.5908L3.53396 4.96776ZM9.9999 2.00023C7.87435 2.00023 6.01414 3.42921 5.46657 5.48303L3.22503 13.8888L2.16562 14.5244C2.06288 14.5861 2.00015 14.6971 2.00015 14.817C2.00015 15.0052 2.15275 15.1578 2.34113 15.1578H17.659C17.8472 15.1578 17.9998 15.0052 17.9998 14.817C17.9998 14.6971 17.9371 14.5861 17.8343 14.5244L16.7749 13.8888L14.5334 5.48303C13.9855 3.42921 12.1257 2.00023 10 2.00023H9.9999ZM8.21323 17.1579C8.63827 17.6723 9.28113 17.9999 9.99976 17.9999C10.7186 17.9999 11.3616 17.6723 11.7864 17.1579H8.21323Z" fill="#999999"/>
</svg>
