<svg width="29" height="20" viewBox="0 0 29 20" fill="none" xmlns="http://www.w3.org/2000/svg">
<path fill-rule="evenodd" clip-rule="evenodd" d="M13.8462 4.97041C13.8462 8.61019 11.8027 9.9262 9.27321 9.94071C14.3517 9.95317 18.4615 12.2086 18.4615 19.9998H0C0 12.2086 4.10984 9.95317 9.18832 9.94071C6.65886 9.9262 4.61538 8.61019 4.61538 4.97041C4.61538 1.3103 6.68176 0 9.23077 0C11.7798 0 13.8462 1.3103 13.8462 4.97041ZM24.0769 3.07692C24.0769 2.52464 23.6292 2.07692 23.0769 2.07692C22.5246 2.07692 22.0769 2.52464 22.0769 3.07692V6.69231H18.4615C17.9093 6.69231 17.4615 7.14002 17.4615 7.69231C17.4615 8.24459 17.9093 8.69231 18.4615 8.69231H22.0769V12.3077C22.0769 12.86 22.5246 13.3077 23.0769 13.3077C23.6292 13.3077 24.0769 12.86 24.0769 12.3077V8.69231H27.6923C28.2446 8.69231 28.6923 8.24459 28.6923 7.69231C28.6923 7.14002 28.2446 6.69231 27.6923 6.69231H24.0769V3.07692Z" fill="#999999"/>
</svg>
