<svg width="24" height="24" viewBox="0 0 16 16" xmlns="http://www.w3.org/2000/svg">
  <path fill="#999999" fill-rule="evenodd" clip-rule="evenodd" d="M1.5 8C1.5 7.17157 2.17157 6.5 3 6.5C3.82843 6.5 4.5 7.17157 4.5 8C4.5 8.82843 3.82843 9.5 3 9.5C2.17157 9.5 1.5 8.82843 1.5 8ZM6.5 8C6.5 7.17157 7.17157 6.5 8 6.5C8.82843 6.5 9.5 7.17157 9.5 8C9.5 8.82843 8.82843 9.5 8 9.5C7.17157 9.5 6.5 8.82843 6.5 8ZM11.5 8C11.5 7.17157 12.1716 6.5 13 6.5C13.8284 6.5 14.5 7.17157 14.5 8C14.5 8.82843 13.8284 9.5 13 9.5C12.1716 9.5 11.5 8.82843 11.5 8Z" />
</svg>