<svg width="43" height="24" viewBox="0 0 43 24" fill="none" xmlns="http://www.w3.org/2000/svg">
<path d="M0 6C0 2.68629 2.68629 0 6 0H37C40.3137 0 43 2.68629 43 6V18C43 21.3137 40.3137 24 37 24H6C2.68629 24 0 21.3137 0 18V6Z" fill="#333333"/>
<path d="M8.8608 16V7.27273H12.1335C12.804 7.27273 13.3665 7.39773 13.821 7.64773C14.2784 7.89773 14.6236 8.24148 14.8565 8.67898C15.0923 9.11364 15.2102 9.60795 15.2102 10.1619C15.2102 10.7216 15.0923 11.2187 14.8565 11.6534C14.6207 12.0881 14.2727 12.4304 13.8125 12.6804C13.3523 12.9276 12.7855 13.0511 12.1122 13.0511H9.94318V11.7514H11.8991C12.2912 11.7514 12.6122 11.6832 12.8622 11.5469C13.1122 11.4105 13.2969 11.223 13.4162 10.9844C13.5384 10.7457 13.5994 10.4716 13.5994 10.1619C13.5994 9.85227 13.5384 9.57955 13.4162 9.34375C13.2969 9.10795 13.1108 8.92472 12.858 8.79403C12.608 8.66051 12.2855 8.59375 11.8906 8.59375H10.4418V16H8.8608ZM19.2766 16.1278C18.6374 16.1278 18.0835 15.9872 17.6147 15.706C17.146 15.4247 16.7823 15.0312 16.5238 14.5256C16.2681 14.0199 16.1403 13.429 16.1403 12.7528C16.1403 12.0767 16.2681 11.4844 16.5238 10.9759C16.7823 10.4673 17.146 10.0724 17.6147 9.79119C18.0835 9.50994 18.6374 9.36932 19.2766 9.36932C19.9158 9.36932 20.4698 9.50994 20.9386 9.79119C21.4073 10.0724 21.7695 10.4673 22.0252 10.9759C22.2837 11.4844 22.413 12.0767 22.413 12.7528C22.413 13.429 22.2837 14.0199 22.0252 14.5256C21.7695 15.0312 21.4073 15.4247 20.9386 15.706C20.4698 15.9872 19.9158 16.1278 19.2766 16.1278ZM19.2852 14.892C19.6317 14.892 19.9215 14.7969 20.1545 14.6065C20.3874 14.4134 20.5607 14.1548 20.6744 13.831C20.7908 13.5071 20.8491 13.1463 20.8491 12.7486C20.8491 12.348 20.7908 11.9858 20.6744 11.6619C20.5607 11.3352 20.3874 11.0753 20.1545 10.8821C19.9215 10.6889 19.6317 10.5923 19.2852 10.5923C18.93 10.5923 18.6346 10.6889 18.3988 10.8821C18.1658 11.0753 17.9911 11.3352 17.8746 11.6619C17.761 11.9858 17.7042 12.348 17.7042 12.7486C17.7042 13.1463 17.761 13.5071 17.8746 13.831C17.9911 14.1548 18.1658 14.4134 18.3988 14.6065C18.6346 14.7969 18.93 14.892 19.2852 14.892ZM28.8956 11.1847L27.4893 11.3381C27.4496 11.196 27.38 11.0625 27.2805 10.9375C27.1839 10.8125 27.0533 10.7116 26.8885 10.6349C26.7237 10.5582 26.522 10.5199 26.2834 10.5199C25.9624 10.5199 25.6925 10.5895 25.4737 10.7287C25.2578 10.8679 25.1513 11.0483 25.1541 11.2699C25.1513 11.4602 25.2209 11.6151 25.3629 11.7344C25.5078 11.8537 25.7464 11.9517 26.0788 12.0284L27.1953 12.267C27.8146 12.4006 28.2749 12.6122 28.576 12.902C28.88 13.1918 29.0334 13.571 29.0362 14.0398C29.0334 14.4517 28.9126 14.8153 28.674 15.1307C28.4382 15.4432 28.1101 15.6875 27.6896 15.8636C27.2692 16.0398 26.7862 16.1278 26.2408 16.1278C25.4396 16.1278 24.7947 15.9602 24.3061 15.625C23.8175 15.2869 23.5263 14.8168 23.4325 14.2145L24.9368 14.0696C25.005 14.3651 25.1499 14.5881 25.3714 14.7386C25.593 14.8892 25.8814 14.9645 26.2365 14.9645C26.603 14.9645 26.897 14.8892 27.1186 14.7386C27.343 14.5881 27.4553 14.402 27.4553 14.1804C27.4553 13.9929 27.3828 13.8381 27.2379 13.7159C27.0959 13.5937 26.8743 13.5 26.5732 13.4347L25.4567 13.2003C24.8288 13.0696 24.3643 12.8494 24.0632 12.5398C23.7621 12.2273 23.6129 11.8324 23.6158 11.3551C23.6129 10.9517 23.7223 10.6023 23.9439 10.3068C24.1683 10.0085 24.4794 9.77841 24.8771 9.61648C25.2777 9.4517 25.7393 9.36932 26.2621 9.36932C27.0291 9.36932 27.6328 9.53267 28.0732 9.85938C28.5163 10.1861 28.7905 10.6278 28.8956 11.1847ZM33.5767 9.45455V10.6477H29.8139V9.45455H33.5767ZM30.7429 7.88636H32.2855V14.0312C32.2855 14.2386 32.3168 14.3977 32.3793 14.5085C32.4446 14.6165 32.5298 14.6903 32.6349 14.7301C32.7401 14.7699 32.8565 14.7898 32.9844 14.7898C33.081 14.7898 33.169 14.7827 33.2486 14.7685C33.331 14.7543 33.3935 14.7415 33.4361 14.7301L33.696 15.9361C33.6136 15.9645 33.4957 15.9957 33.3423 16.0298C33.1918 16.0639 33.0071 16.0838 32.7884 16.0895C32.402 16.1009 32.054 16.0426 31.7443 15.9148C31.4347 15.7841 31.1889 15.5824 31.0071 15.3097C30.8281 15.0369 30.7401 14.696 30.7429 14.2869V7.88636Z" fill="white"/>
</svg>
