<svg width="24" height="24" viewBox="0 0 21 20" fill="none" xmlns="http://www.w3.org/2000/svg">
<path d="M6.18762 10.9999C6.73993 10.9999 7.18757 10.5523 7.18757 9.99998C7.18757 9.44768 6.73993 9.00003 6.18762 9.00003C5.63532 9.00003 5.1875 9.44768 5.1875 9.99998C5.1875 10.5523 5.63532 10.9999 6.18762 10.9999Z" fill="#999999"/>
<path d="M10.1872 10.9999C10.7395 10.9999 11.1872 10.5523 11.1872 9.99998C11.1872 9.44768 10.7395 9.00003 10.1872 9.00003C9.6349 9.00003 9.18726 9.44768 9.18726 9.99998C9.18726 10.5523 9.6349 10.9999 10.1872 10.9999Z" fill="#999999"/>
<path d="M15.1876 10.0001C15.1876 10.5524 14.7398 11 14.1875 11C13.6351 11 13.1875 10.5524 13.1875 10.0001C13.1875 9.44777 13.6351 9.00012 14.1875 9.00012C14.7398 9.00012 15.1876 9.44777 15.1876 10.0001Z" fill="#999999"/>
<path fill-rule="evenodd" clip-rule="evenodd" d="M20.1875 10.0001C20.1875 15.5231 15.7106 20 10.1876 20H1.35078C0.416611 20 -0.135179 18.9694 0.392697 18.2107L2.2309 16.0583C0.948858 14.3771 0.187624 12.2774 0.187624 9.99994C0.187624 4.47689 4.66452 0 10.1876 0C15.7106 0 20.1875 4.47689 20.1875 9.99994V10.0001ZM18.1876 10.0001C18.1876 14.4182 14.6058 18.0003 10.1874 18.0003H3.20248L4.90422 16.0077C4.5935 15.7344 4.30438 15.4372 4.03918 15.1191C3.87211 14.9186 3.71457 14.7098 3.56724 14.4933C2.69637 13.2124 2.18727 11.6657 2.18727 10.0002C2.18727 5.58197 5.76904 1.99994 10.1875 1.99994C14.6059 1.99994 18.1877 5.58172 18.1877 10.0002L18.1876 10.0001Z" fill="#999999"/>
</svg>
