<svg width="24" height="24" viewBox="0 0 21 20" fill="none" xmlns="http://www.w3.org/2000/svg">
<path fill-rule="evenodd" clip-rule="evenodd" d="M20.5267 18.5352C20.5927 19.2482 20.068 19.8802 19.355 19.9465L18.8383 19.9944C18.1248 20.0604 17.4933 19.5357 17.427 18.8227L17.3791 18.3087C17.3773 18.2911 17.3803 18.2745 17.3794 18.2572C16.6855 12.2475 11.3658 7.8515 5.3244 8.32033L7.75724 10.8721C8.25642 11.376 8.25285 12.1894 7.74862 12.6889L7.38502 13.0489C6.88109 13.5484 6.06795 13.5445 5.56851 13.0403L0.42129 7.64069L0.372235 7.59134C0.122504 7.33952 -0.00147845 7.00952 1.33014e-05 6.68099C0.00120252 6.35158 0.127854 6.02306 0.380265 5.7727L0.430509 5.72275L5.62675 0.372162C6.13068 -0.127308 6.94413 -0.123441 7.44326 0.38019L7.80329 0.743195C8.30276 1.24742 8.2989 2.06058 7.79527 2.56001L5.24323 5.18815C12.9417 4.65836 19.6987 10.3291 20.4872 18.0301C20.4852 18.031 20.4825 18.0319 20.4801 18.0328L20.5267 18.5352Z" fill="#999999"/>
</svg>
