<svg width="24" height="24" viewBox="0 0 21 20" fill="none" xmlns="http://www.w3.org/2000/svg">
<path fill-rule="evenodd" clip-rule="evenodd" d="M14.1406 17.0335H11.2718L12.443 18.2135C12.738 18.5024 12.738 18.9708 12.443 19.26L11.9087 19.7833C11.6138 20.0722 11.1355 20.0722 10.8403 19.7833L7.60139 16.4712C7.4471 16.32 7.37809 16.1201 7.38534 15.9218C7.37809 15.7237 7.44711 15.5237 7.60139 15.3724L10.8707 12.0602C11.1658 11.7713 11.6439 11.7713 11.939 12.0602L12.4733 12.5836C12.7683 12.8725 12.7683 13.3409 12.4733 13.6301L11.2905 14.8285H14.02C16.1906 14.8285 17.9322 13.1052 17.9322 10.9787V9.02972C17.9322 7.40776 16.9238 6.02676 15.4747 5.45993C15.4818 5.45067 15.4864 5.44141 15.4934 5.43216C15.1389 5.24142 14.8895 4.88555 14.8895 4.46124C14.8895 3.84145 15.4025 3.33899 16.0352 3.33899C16.2018 3.33899 16.3581 3.37753 16.5009 3.44017C16.5018 3.4378 16.5031 3.43458 16.5038 3.43221C18.6691 4.3334 20.1874 6.43539 20.1874 8.88507V11.093C20.1872 14.3642 17.4799 17.0335 14.1406 17.0335L14.1406 17.0335ZM13.1564 4.62665L9.88672 7.93901C9.59176 8.22792 9.11352 8.22792 8.81858 7.93901L8.28384 7.41566C7.98889 7.12675 7.98889 6.65831 8.28384 6.36919L9.45725 5.18042H6.74094C4.57034 5.18042 2.81054 6.90378 2.81054 9.03029V10.9792C2.81054 12.6918 3.96004 14.1262 5.5385 14.6259C5.5108 14.6567 5.48773 14.687 5.4607 14.7176C5.69257 14.9228 5.84422 15.2123 5.84422 15.5426C5.84422 16.1624 5.33168 16.6648 4.69894 16.6648C4.51059 16.6648 4.34003 16.6095 4.18354 16.5305C4.18333 16.5307 4.18333 16.5307 4.18333 16.5311C2.03625 15.622 0.532227 13.5303 0.532227 11.0935V8.88563C0.532227 5.61483 3.23931 2.96327 6.57847 2.96327H9.46538L8.31459 1.78651C8.01964 1.4976 8.01964 1.02915 8.31459 0.740035L8.84933 0.216682C9.14428 -0.0722274 9.62252 -0.0722274 9.91746 0.216682L13.1562 3.52882C13.3105 3.67995 13.3793 3.87995 13.3722 4.07823C13.3793 4.27585 13.3105 4.47585 13.1562 4.62698L13.1564 4.62665Z" fill="#999999"/>
</svg>
