<svg width="17" height="17" viewBox="0 0 17 17" fill="none" xmlns="http://www.w3.org/2000/svg">
<path fill-rule="evenodd" clip-rule="evenodd" d="M15 7C15 9.76142 12.7614 12 10 12C7.23858 12 5 9.76142 5 7C5 4.23858 7.23858 2 10 2C12.7614 2 15 4.23858 15 7ZM17 7C17 10.866 13.866 14 10 14C8.42409 14 6.9698 13.4792 5.79985 12.6004C5.77187 12.6376 5.74096 12.6733 5.70711 12.7071L1.70711 16.7071C1.31658 17.0976 0.683418 17.0976 0.292893 16.7071C-0.097631 16.3166 -0.097631 15.6834 0.292893 15.2929L4.29289 11.2929C4.32674 11.259 4.36242 11.2281 4.3996 11.2001C3.52077 10.0302 3 8.57591 3 7C3 3.13401 6.13401 0 10 0C13.866 0 17 3.13401 17 7Z" fill="#666666"/>
</svg>
